<svg width="246" height="21" viewBox="0 0 246 21" fill="none" xmlns="http://www.w3.org/2000/svg">
<path d="M13.524 19.9082L5.90801 10.7522V10.5282L13.412 0.308202H20.552L11.508 12.3202L11.676 8.3442L21.392 19.9082H13.524ZM7.89762e-06 19.9082V0.308202H6.46801V19.9082H7.89762e-06ZM22.9075 19.9082V5.6842H28.7035V15.0362L27.7515 14.6162L34.5835 5.6842H40.3795V19.9082H34.5555V11.4802L35.5355 11.2002L28.8715 19.9082H22.9075ZM42.296 10.1642V5.6842H58.424V10.1642H42.296ZM47.28 19.9082V6.5522H53.468V19.9082H47.28ZM77.733 18.5922C75.2877 18.5922 73.2157 18.2562 71.517 17.5842C69.8184 16.8935 68.5304 15.9135 67.653 14.6442C66.7757 13.3749 66.337 11.8629 66.337 10.1082C66.337 8.33487 66.7757 6.81354 67.653 5.5442C68.5304 4.27487 69.809 3.3042 71.489 2.6322C73.1877 1.94154 75.2504 1.5962 77.677 1.5962C78.5357 1.5962 79.385 1.5962 80.225 1.5962C81.0837 1.5962 81.933 1.5962 82.773 1.5962C85.181 1.5962 87.225 1.94154 88.905 2.6322C90.6037 3.32287 91.8917 4.30287 92.769 5.5722C93.665 6.84154 94.113 8.35354 94.113 10.1082C94.113 11.8442 93.665 13.3562 92.769 14.6442C91.8917 15.9135 90.6037 16.8935 88.905 17.5842C87.2064 18.2562 85.1437 18.5922 82.717 18.5922C81.8957 18.5922 81.065 18.5922 80.225 18.5922C79.385 18.5922 78.5544 18.5922 77.733 18.5922ZM77.201 20.2442V17.0242L77.285 15.8202V4.2562L77.201 3.1362V0.000202417H83.249V3.1362L83.165 4.2562V15.8202L83.249 17.0242V20.2442H77.201ZM77.929 14.3082C78.6944 14.3082 79.4597 14.3082 80.225 14.3082C80.9904 14.3082 81.7557 14.3082 82.521 14.3082C83.6037 14.3082 84.5184 14.1495 85.265 13.8322C86.0304 13.5149 86.609 13.0389 87.001 12.4042C87.393 11.7695 87.589 11.0042 87.589 10.1082C87.589 9.19354 87.393 8.4282 87.001 7.8122C86.609 7.17754 86.0304 6.70154 85.265 6.3842C84.5184 6.0482 83.6037 5.8802 82.521 5.8802C81.7557 5.8802 80.9904 5.8802 80.225 5.8802C79.4597 5.8802 78.6944 5.8802 77.929 5.8802C76.8277 5.8802 75.8944 6.03887 75.129 6.3562C74.3824 6.67354 73.813 7.14954 73.421 7.7842C73.0477 8.4002 72.861 9.17487 72.861 10.1082C72.861 11.0229 73.0477 11.7975 73.421 12.4322C73.813 13.0482 74.3917 13.5149 75.157 13.8322C75.9224 14.1495 76.8464 14.3082 77.929 14.3082ZM102.962 20.2442C101.842 20.2442 100.825 20.0762 99.9101 19.7402C99.0141 19.3855 98.2395 18.8815 97.5861 18.2282C96.9328 17.5562 96.4288 16.7629 96.0741 15.8482C95.7195 14.9335 95.5421 13.9069 95.5421 12.7682C95.5421 11.2562 95.8501 9.9402 96.4661 8.8202C97.0821 7.7002 97.9501 6.84154 99.0701 6.2442C100.209 5.6282 101.525 5.3202 103.018 5.3202C104.157 5.3202 105.155 5.50687 106.014 5.8802C106.873 6.25354 107.582 6.7762 108.142 7.4482C108.702 8.1202 109.122 8.91354 109.402 9.8282C109.701 10.7242 109.85 11.7042 109.85 12.7682C109.85 14.2429 109.589 15.5402 109.066 16.6602C108.543 17.7802 107.769 18.6575 106.742 19.2922C105.734 19.9269 104.474 20.2442 102.962 20.2442ZM105.09 15.8482C105.762 15.8482 106.341 15.7455 106.826 15.5402C107.33 15.3162 107.713 14.9802 107.974 14.5322C108.235 14.0842 108.366 13.5055 108.366 12.7962C108.366 12.2922 108.291 11.8535 108.142 11.4802C107.993 11.0882 107.778 10.7709 107.498 10.5282C107.218 10.2669 106.873 10.0802 106.462 9.9682C106.051 9.83754 105.594 9.7722 105.09 9.7722C104.437 9.7722 103.858 9.8842 103.354 10.1082C102.869 10.3135 102.486 10.6402 102.206 11.0882C101.945 11.5362 101.814 12.1055 101.814 12.7962C101.814 13.4869 101.954 14.0655 102.234 14.5322C102.514 14.9802 102.897 15.3162 103.382 15.5402C103.867 15.7455 104.437 15.8482 105.09 15.8482ZM108.59 19.9082V14.5042L109.066 12.7962L108.59 11.0042V5.6842H114.414V19.9082H108.59ZM117.1 19.9082L118.024 5.6842H126.48L131.408 16.6882L129.224 17.0242L133.508 5.6842H141.544L142.776 19.9082H136.868L135.916 9.3522L136.56 9.4362L132.584 19.9082H127.152L122.7 9.7722L123.316 9.4082L122.672 19.9082H117.1ZM145.517 19.9082V5.6842H151.313V15.0362L150.361 14.6162L157.193 5.6842H162.989V19.9082H157.165V11.4802L158.145 11.2002L151.481 19.9082H145.517ZM167.313 20.1322C166.809 20.1322 166.361 20.1042 165.969 20.0482C165.596 20.0109 165.26 19.9642 164.961 19.9082V15.5122C165.073 15.5495 165.213 15.5775 165.381 15.5962C165.549 15.6149 165.727 15.6242 165.913 15.6242C166.38 15.6242 166.735 15.5309 166.977 15.3442C167.239 15.1389 167.435 14.7935 167.565 14.3082C167.696 13.8229 167.78 13.1602 167.817 12.3202L168.209 5.6842H183.469V19.9082H177.337V10.1642H173.641L173.361 14.5042C173.287 15.4562 173.137 16.2869 172.913 16.9962C172.689 17.7055 172.353 18.2935 171.905 18.7602C171.457 19.2269 170.86 19.5722 170.113 19.7962C169.367 20.0202 168.433 20.1322 167.313 20.1322ZM186.505 19.9082V5.6842H192.301V15.0362L191.349 14.6162L198.181 5.6842H203.977V19.9082H198.153V11.4802L199.133 11.2002L192.469 19.9082H186.505ZM215.89 20.3002C213.818 20.3002 212.063 19.9922 210.626 19.3762C209.188 18.7602 208.096 17.8829 207.35 16.7442C206.603 15.6055 206.23 14.2895 206.23 12.7962C206.23 11.3029 206.603 9.9962 207.35 8.8762C208.096 7.73754 209.179 6.8602 210.598 6.2442C212.035 5.60954 213.79 5.2922 215.862 5.2922C217.934 5.2922 219.688 5.60954 221.126 6.2442C222.563 6.8602 223.646 7.73754 224.374 8.8762C225.12 9.9962 225.494 11.3029 225.494 12.7962C225.494 14.2895 225.12 15.6055 224.374 16.7442C223.646 17.8829 222.563 18.7602 221.126 19.3762C219.688 19.9922 217.943 20.3002 215.89 20.3002ZM215.862 15.8482C216.552 15.8482 217.15 15.7362 217.654 15.5122C218.158 15.2882 218.54 14.9522 218.802 14.5042C219.082 14.0562 219.222 13.4962 219.222 12.8242C219.222 12.3015 219.138 11.8535 218.97 11.4802C218.82 11.0882 218.596 10.7709 218.298 10.5282C218.018 10.2855 217.672 10.0989 217.262 9.9682C216.851 9.83754 216.384 9.7722 215.862 9.7722C215.171 9.7722 214.574 9.8842 214.07 10.1082C213.566 10.3322 213.183 10.6682 212.922 11.1162C212.66 11.5642 212.53 12.1335 212.53 12.8242C212.53 13.4962 212.66 14.0562 212.922 14.5042C213.183 14.9522 213.566 15.2882 214.07 15.5122C214.574 15.7362 215.171 15.8482 215.862 15.8482ZM239.106 19.9082V5.6842H245.21V19.9082H239.106ZM227.794 19.9082V5.6842H233.87V19.9082H227.794ZM230.034 14.8122V10.5002H243.138V14.8122H230.034Z" fill="#58B901"/>
</svg>
